# xmcd
#
# Track frame offsets: 
#        150
#        20138
#        34078
#        49198
#        69442
#        90315
#        114639
#        132980
#        151794
#
# Disc length: 2330 seconds
#
# Revision: 0
# Processed by: cddbd v1.5.2PL0 Copyright (c) Steve Scherf et al.
# Submitted via: ExactAudioCopy v0.95b4
#
DISCID=6f091809
DTITLE=Danika Labelle - My Soundtrack
DYEAR=2008
DGENRE=Vocal
TTITLE0=Crazy He Calls Me
TTITLE1=Ain't No Sunshine
TTITLE2=Funny Feelin'
TTITLE3=Stop
TTITLE4=Me and Bobby McGee
TTITLE5=Vienna
TTITLE6=I Got the Music in Me
TTITLE7=You Oughta Know
TTITLE8=Je Ne Suis Qu'une Chanson
EXTD=
EXTT0=
EXTT1=
EXTT2=
EXTT3=
EXTT4=
EXTT5=
EXTT6=
EXTT7=
EXTT8=
PLAYORDER=
